<svg xmlns="http://www.w3.org/2000/svg" viewBox="0 0 512 512" width="512" height="512">
  <defs>
    <linearGradient id="bg" x1="0" y1="0" x2="1" y2="1">
      <stop offset="0%" stop-color="#08081a"/>
      <stop offset="100%" stop-color="#12123a"/>
    </linearGradient>
    <linearGradient id="accent" x1="0" y1="0" x2="1" y2="1">
      <stop offset="0%" stop-color="#00e5ff"/>
      <stop offset="50%" stop-color="#7c3aed"/>
      <stop offset="100%" stop-color="#e879f9"/>
    </linearGradient>
    <linearGradient id="glowCyan" x1="0" y1="0" x2="1" y2="1">
      <stop offset="0%" stop-color="#00e5ff"/>
      <stop offset="100%" stop-color="#22d3ee"/>
    </linearGradient>
    <filter id="glow" x="-30%" y="-30%" width="160%" height="160%">
      <feGaussianBlur stdDeviation="6" result="blur"/>
      <feMerge>
        <feMergeNode in="blur"/>
        <feMergeNode in="SourceGraphic"/>
      </feMerge>
    </filter>
    <filter id="glowStrong" x="-50%" y="-50%" width="200%" height="200%">
      <feGaussianBlur stdDeviation="16" result="blur"/>
      <feMerge>
        <feMergeNode in="blur"/>
        <feMergeNode in="blur"/>
        <feMergeNode in="SourceGraphic"/>
      </feMerge>
    </filter>
    <pattern id="hexGrid" width="48" height="83.14" patternUnits="userSpaceOnUse">
      <path d="M24 0 L48 13.86 L48 41.57 L24 55.43 L0 41.57 L0 13.86 Z" fill="none" stroke="#a855f7" stroke-width="0.5" opacity="0.06"/>
      <path d="M24 83.14 L48 69.28 L48 41.57 L24 55.43 L0 41.57 L0 69.28 Z" fill="none" stroke="#a855f7" stroke-width="0.5" opacity="0.06"/>
    </pattern>
  </defs>

  <rect width="512" height="512" rx="72" fill="url(#bg)"/>
  <rect width="512" height="512" rx="72" fill="url(#hexGrid)"/>

  <g opacity="0.15">
    <polygon points="256,30 446,140 446,372 256,482 66,372 66,140" fill="none" stroke="#00e5ff" stroke-width="1"/>
    <polygon points="256,60 421,156 421,356 256,452 91,356 91,156" fill="none" stroke="#7c3aed" stroke-width="0.5"/>
  </g>

  <g opacity="0.25">
    <line x1="66" y1="140" x2="30" y2="90" stroke="#00e5ff" stroke-width="1.5"/>
    <line x1="446" y1="140" x2="482" y2="90" stroke="#00e5ff" stroke-width="1.5"/>
    <line x1="66" y1="372" x2="30" y2="422" stroke="#00e5ff" stroke-width="1.5"/>
    <line x1="446" y1="372" x2="482" y2="422" stroke="#00e5ff" stroke-width="1.5"/>
    <line x1="256" y1="30" x2="256" y2="10" stroke="#00e5ff" stroke-width="1.5"/>
    <line x1="256" y1="482" x2="256" y2="502" stroke="#00e5ff" stroke-width="1.5"/>
  </g>

  <circle cx="256" cy="256" r="200" fill="none" stroke="url(#accent)" stroke-width="0.75" stroke-dasharray="6 12" opacity="0.3"/>
  <circle cx="256" cy="256" r="150" fill="none" stroke="url(#accent)" stroke-width="0.75" stroke-dasharray="4 10" opacity="0.4"/>
  <circle cx="256" cy="256" r="100" fill="none" stroke="url(#accent)" stroke-width="1" stroke-dasharray="3 8" opacity="0.5"/>
  <circle cx="256" cy="256" r="55" fill="none" stroke="url(#accent)" stroke-width="1.5" stroke-dasharray="2 4" opacity="0.6"/>

  <g opacity="0.12">
    <line x1="56" y1="256" x2="456" y2="256" stroke="#00e5ff" stroke-width="1"/>
    <line x1="256" y1="56" x2="256" y2="456" stroke="#00e5ff" stroke-width="1"/>
  </g>

  <g opacity="0.35">
    <polyline points="80,80 140,80 180,120" fill="none" stroke="url(#glowCyan)" stroke-width="1.5"/>
    <polyline points="432,80 372,80 332,120" fill="none" stroke="url(#glowCyan)" stroke-width="1.5"/>
    <polyline points="80,432 140,432 180,392" fill="none" stroke="url(#glowCyan)" stroke-width="1.5"/>
    <polyline points="432,432 372,432 332,392" fill="none" stroke="url(#glowCyan)" stroke-width="1.5"/>
  </g>

  <g opacity="0.3">
    <circle cx="256" cy="56" r="3" fill="#00e5ff"/>
    <circle cx="256" cy="456" r="3" fill="#00e5ff"/>
    <circle cx="56" cy="256" r="3" fill="#00e5ff"/>
    <circle cx="456" cy="256" r="3" fill="#00e5ff"/>
    <circle cx="160" cy="96" r="2" fill="#7c3aed"/>
    <circle cx="352" cy="96" r="2" fill="#7c3aed"/>
    <circle cx="160" cy="416" r="2" fill="#7c3aed"/>
    <circle cx="352" cy="416" r="2" fill="#7c3aed"/>
  </g>

  <rect x="186" y="186" width="140" height="140" rx="12" fill="none" stroke="url(#accent)" stroke-width="1.5" opacity="0.2"/>

  <g opacity="0.25">
    <line x1="256" y1="186" x2="256" y2="156" stroke="url(#accent)" stroke-width="1"/>
    <line x1="256" y1="326" x2="256" y2="356" stroke="url(#accent)" stroke-width="1"/>
    <line x1="186" y1="256" x2="156" y2="256" stroke="url(#accent)" stroke-width="1"/>
    <line x1="326" y1="256" x2="356" y2="256" stroke="url(#accent)" stroke-width="1"/>
  </g>

  <g opacity="0.35">
    <polyline points="176,160 196,160 196,176" fill="none" stroke="url(#glowCyan)" stroke-width="1.5"/>
    <polyline points="336,160 316,160 316,176" fill="none" stroke="url(#glowCyan)" stroke-width="1.5"/>
    <polyline points="176,352 196,352 196,336" fill="none" stroke="url(#glowCyan)" stroke-width="1.5"/>
    <polyline points="336,352 316,352 316,336" fill="none" stroke="url(#glowCyan)" stroke-width="1.5"/>
  </g>

  <g opacity="0.2">
    <rect x="160" y="148" width="8" height="8" rx="1" fill="none" stroke="#00e5ff" stroke-width="1" transform="rotate(45 164 152)"/>
    <rect x="344" y="148" width="8" height="8" rx="1" fill="none" stroke="#00e5ff" stroke-width="1" transform="rotate(45 348 152)"/>
    <rect x="160" y="356" width="8" height="8" rx="1" fill="none" stroke="#00e5ff" stroke-width="1" transform="rotate(45 164 360)"/>
    <rect x="344" y="356" width="8" height="8" rx="1" fill="none" stroke="#00e5ff" stroke-width="1" transform="rotate(45 348 360)"/>
  </g>

  <g opacity="0.2">
    <line x1="106" y1="106" x2="140" y2="140" stroke="#7c3aed" stroke-width="1" stroke-dasharray="3 4"/>
    <line x1="406" y1="106" x2="372" y2="140" stroke="#7c3aed" stroke-width="1" stroke-dasharray="3 4"/>
    <line x1="106" y1="406" x2="140" y2="372" stroke="#7c3aed" stroke-width="1" stroke-dasharray="3 4"/>
    <line x1="406" y1="406" x2="372" y2="372" stroke="#7c3aed" stroke-width="1" stroke-dasharray="3 4"/>
  </g>

  <g opacity="0.15">
    <circle cx="256" cy="106" r="1.5" fill="#00e5ff"/>
    <circle cx="256" cy="406" r="1.5" fill="#00e5ff"/>
    <circle cx="106" cy="256" r="1.5" fill="#00e5ff"/>
    <circle cx="406" cy="256" r="1.5" fill="#00e5ff"/>
    <circle cx="174" cy="142" r="1.5" fill="#e879f9"/>
    <circle cx="338" cy="142" r="1.5" fill="#e879f9"/>
    <circle cx="174" cy="370" r="1.5" fill="#e879f9"/>
    <circle cx="338" cy="370" r="1.5" fill="#e879f9"/>
  </g>

  <text x="128" y="190" font-family="Arial,Helvetica,sans-serif" font-size="140" font-weight="900" fill="#ffffff" text-anchor="middle" opacity="0.08">W</text>
  <text x="384" y="190" font-family="Arial,Helvetica,sans-serif" font-size="140" font-weight="900" fill="#ffffff" text-anchor="middle" opacity="0.08">U</text>
  <text x="128" y="430" font-family="Arial,Helvetica,sans-serif" font-size="140" font-weight="900" fill="#ffffff" text-anchor="middle" opacity="0.08">W</text>
  <text x="384" y="430" font-family="Arial,Helvetica,sans-serif" font-size="140" font-weight="900" fill="#ffffff" text-anchor="middle" opacity="0.08">A</text>
  <text x="256" y="370" font-family="'Microsoft YaHei','Noto Sans SC','PingFang SC',sans-serif" font-size="340" font-weight="900" fill="url(#accent)" text-anchor="middle" filter="url(#glowStrong)">軸</text>
  <text x="256" y="370" font-family="'Microsoft YaHei','Noto Sans SC','PingFang SC',sans-serif" font-size="340" font-weight="900" fill="#ffffff" text-anchor="middle" opacity="0.08">軸</text>
</svg>
